0
SECTION
2
HEADER
9
$INSUNITS
70
5
9
$ACADVER
1
AC1014
9
$HANDSEED
5
FFFF
0
ENDSEC
0
SECTION
2
TABLES
0
TABLE
2
VPORT
5
8
100
AcDbSymbolTable
0
ENDTAB
0
TABLE
2
LTYPE
5
5
100
AcDbSymbolTable
0
LTYPE
5
14
100
AcDbSymbolTableRecord
100
AcDbLinetypeTableRecord
2
BYBLOCK
70
0
0
LTYPE
5
15
100
AcDbSymbolTableRecord
100
AcDbLinetypeTableRecord
2
BYLAYER
70
0
0
ENDTAB
0
TABLE
2
LAYER
5
2
100
AcDbSymbolTable
70
2
0
LAYER
5
50
100
AcDbSymbolTableRecord
100
AcDbLayerTableRecord
2
0
70
0
6
CONTINUOUS
0
ENDTAB
0
TABLE
2
STYLE
5
3
100
AcDbSymbolTable
70
1
0
STYLE
5
11
100
AcDbSymbolTableRecord
100
AcDbTextStyleTableRecord
2
STANDARD
70
0
0
ENDTAB
0
TABLE
2
VIEW
5
6
100
AcDbSymbolTable
70
0
0
ENDTAB
0
TABLE
2
UCS
5
7
100
AcDbSymbolTable
70
0
0
ENDTAB
0
TABLE
2
APPID
5
9
100
AcDbSymbolTable
70
2
0
APPID
5
12
100
AcDbSymbolTableRecord
100
AcDbRegAppTableRecord
2
ACAD
70
0
0
ENDTAB
0
TABLE
2
DIMSTYLE
5
A
100
AcDbSymbolTable
70
1
0
ENDTAB
0
TABLE
2
BLOCK_RECORD
5
1
100
AcDbSymbolTable
70
1
0
BLOCK_RECORD
5
1F
100
AcDbSymbolTableRecord
100
AcDbBlockTableRecord
2
*MODEL_SPACE
0
BLOCK_RECORD
5
1B
100
AcDbSymbolTableRecord
100
AcDbBlockTableRecord
2
*PAPER_SPACE
0
ENDTAB
0
ENDSEC
0
SECTION
2
BLOCKS
0
BLOCK
5
20
100
AcDbEntity
100
AcDbBlockBegin
2
*MODEL_SPACE
0
ENDBLK
5
21
100
AcDbEntity
100
AcDbBlockEnd
0
BLOCK
5
1C
100
AcDbEntity
100
AcDbBlockBegin
2
*PAPER_SPACE
0
ENDBLK
5
1D
100
AcDbEntity
100
AcDbBlockEnd
0
ENDSEC
0
SECTION
2
ENTITIES
0
LWPOLYLINE
5
100
100
AcDbEntity
8
0
100
AcDbPolyline
90
4
70
1
43
0.0
10
4.0074350096968638
20
-5.8116815712060728
10
4.2774350096968643
20
-5.8116815712060728
10
4.2774350096968643
20
-5.6916815712060727
10
4.0074350096968638
20
-5.6916815712060727
0
LWPOLYLINE
5
101
100
AcDbEntity
8
0
100
AcDbPolyline
90
4
70
1
43
0.0
10
5.7225649903031375
20
-4.1893184287939285
10
5.7225649903031375
20
-4.3093184287939286
10
5.9925649903031379
20
-4.3093184287939286
10
5.9925649903031379
20
-4.1893184287939285
0
LWPOLYLINE
5
102
100
AcDbEntity
8
0
100
AcDbPolyline
90
4
70
1
43
0.0
10
4.0074350096968638
20
-4.1893184287939285
10
4.0074350096968638
20
-4.3093184287939286
10
4.2774350096968643
20
-4.3093184287939286
10
4.2774350096968643
20
-4.1893184287939285
0
LWPOLYLINE
5
103
100
AcDbEntity
8
0
100
AcDbPolyline
90
4
70
1
43
0.0
10
5.7225649903031375
20
-5.8116815712060728
10
5.9925649903031379
20
-5.8116815712060728
10
5.9925649903031379
20
-5.6916815712060727
10
5.7225649903031375
20
-5.6916815712060727
0
LWPOLYLINE
5
104
100
AcDbEntity
8
0
100
AcDbPolyline
90
4
70
1
43
0.0
10
2.7238376983052559
20
-5.8116815712060719
10
2.9938376983052573
20
-5.8116815712060719
10
2.9938376983052573
20
-5.6916815712060727
10
2.7238376983052559
20
-5.6916815712060727
0
LWPOLYLINE
5
105
100
AcDbEntity
8
0
100
AcDbPolyline
90
4
70
1
43
0.0
10
7.0061623016947445
20
-4.1893184287939293
10
7.0061623016947445
20
-4.3093184287939286
10
7.2761623016947468
20
-4.3093184287939286
10
7.2761623016947468
20
-4.1893184287939285
0
LWPOLYLINE
5
106
100
AcDbEntity
8
0
100
AcDbPolyline
90
4
70
1
43
0.0
10
2.9938376983052573
20
-4.1893184287939293
10
2.7238376983052559
20
-4.1893184287939276
10
2.7238376983052559
20
-4.3093184287939277
10
2.9938376983052573
20
-4.3093184287939286
0
LWPOLYLINE
5
107
100
AcDbEntity
8
0
100
AcDbPolyline
90
4
70
1
43
0.0
10
7.0061623016947445
20
-5.8116815712060719
10
7.2761623016947459
20
-5.8116815712060736
10
7.2761623016947459
20
-5.6916815712060735
10
7.0061623016947445
20
-5.6916815712060727
0
LWPOLYLINE
5
108
100
AcDbEntity
8
0
100
AcDbPolyline
90
4
70
1
43
0.0
10
4.8000000000000007
20
-4.1763566213361392
10
4.8000000000000007
20
-4.3063566213361391
10
5.2000000000000011
20
-4.3063566213361391
10
5.2000000000000011
20
-4.1763566213361392
0
LINE
5
109
100
AcDbEntity
8
0
100
AcDbLine
10
8.2375000000000007
20
-4.1455000000000002
30
0
11
8.2375000000000007
21
-4.0830000000000002
31
0
0
LINE
5
110
100
AcDbEntity
8
0
100
AcDbLine
10
8.2375000000000007
20
-4.0830000000000002
30
0
11
1.7625000000000011
21
-4.0830000000000002
31
0
0
LINE
5
111
100
AcDbEntity
8
0
100
AcDbLine
10
1.7625000000000011
20
-4.0830000000000002
30
0
11
1.7625000000000011
21
-4.1455000000000002
31
0
0
LINE
5
112
100
AcDbEntity
8
0
100
AcDbLine
10
1.7625000000000011
20
-5.9180000000000001
30
0
11
8.2375000000000007
21
-5.9180000000000001
31
0
0
LINE
5
113
100
AcDbEntity
8
0
100
AcDbLine
10
8.2375000000000007
20
-5.9180000000000001
30
0
11
13.09824333882308
21
-5.9180000000000001
31
0
0
LINE
5
114
100
AcDbEntity
8
0
100
AcDbLine
10
13.09824333882308
20
-5.9180000000000001
30
0
11
13.09824333882308
21
-4.0830000000000002
31
0
0
LINE
5
115
100
AcDbEntity
8
0
100
AcDbLine
10
13.09824333882308
20
-4.0830000000000002
30
0
11
11.66074333882308
21
-4.0830000000000002
31
0
0
LINE
5
116
100
AcDbEntity
8
0
100
AcDbLine
10
13.09824333882308
20
-4.0830000000000002
30
0
11
9.8888716694115413
21
-4.0830000000000002
31
0
0
LINE
5
117
100
AcDbEntity
8
0
100
AcDbLine
10
9.8888716694115413
20
-4.0830000000000002
30
0
11
9.8888716694115413
21
-4.1455000000000002
31
0
0
LINE
5
118
100
AcDbEntity
8
0
100
AcDbLine
10
9.8888716694115413
20
-4.1455000000000002
30
0
11
9.8181858347057709
21
-4.1455000000000002
31
0
0
LINE
5
119
100
AcDbEntity
8
0
100
AcDbLine
10
9.8181858347057709
20
-4.1455000000000002
30
0
11
9.8181858347057691
21
-4.0748141652942351
31
0
0
LINE
5
120
100
AcDbEntity
8
0
100
AcDbLine
10
9.8181858347057691
20
-4.0748141652942351
30
0
11
9.8181858347057709
21
-3.2873141652942346
31
0
0
LINE
5
121
100
AcDbEntity
8
0
100
AcDbLine
10
9.8181858347057709
20
-3.2873141652942346
30
0
11
8.3081858347057711
21
-3.2873141652942346
31
0
0
LINE
5
122
100
AcDbEntity
8
0
100
AcDbLine
10
8.3081858347057711
20
-3.2873141652942346
30
0
11
8.3081858347057711
21
-4.1455000000000002
31
0
0
LINE
5
123
100
AcDbEntity
8
0
100
AcDbLine
10
8.3081858347057711
20
-4.1455000000000002
30
0
11
8.2375000000000007
21
-4.1455000000000002
31
0
0
LINE
5
124
100
AcDbEntity
8
0
100
AcDbLine
10
1.7625000000000011
20
-4.1455000000000002
30
0
11
1.6918141652942307
21
-4.1455000000000002
31
0
0
LINE
5
125
100
AcDbEntity
8
0
100
AcDbLine
10
1.6918141652942307
20
-4.1455000000000002
30
0
11
1.6918141652942307
21
-3.2873141652942293
31
0
0
LINE
5
126
100
AcDbEntity
8
0
100
AcDbLine
10
1.6918141652942307
20
-3.2873141652942293
30
0
11
0.18181416529423089
21
-3.2873141652942293
31
0
0
LINE
5
127
100
AcDbEntity
8
0
100
AcDbLine
10
0.18181416529423089
20
-3.2873141652942293
30
0
11
0.18181416529423089
21
-4.1455000000000002
31
0
0
LINE
5
128
100
AcDbEntity
8
0
100
AcDbLine
10
0.18181416529423089
20
-4.1455000000000002
30
0
11
0.11112833058846139
21
-4.1455000000000002
31
0
0
LINE
5
129
100
AcDbEntity
8
0
100
AcDbLine
10
0.11112833058846139
20
-4.1455000000000002
30
0
11
0.11112833058846139
21
-4.0830000000000002
31
0
0
LINE
5
130
100
AcDbEntity
8
0
100
AcDbLine
10
0.11112833058846139
20
-4.0830000000000002
30
0
11
-3.098243338823079
21
-4.0830000000000002
31
0
0
LINE
5
131
100
AcDbEntity
8
0
100
AcDbLine
10
-3.098243338823079
20
-4.0830000000000002
30
0
11
-3.098243338823079
21
-5.9180000000000001
31
0
0
LINE
5
132
100
AcDbEntity
8
0
100
AcDbLine
10
-3.098243338823079
20
-5.9180000000000001
30
0
11
1.7625000000000011
21
-5.9180000000000001
31
0
0
LINE
5
133
100
AcDbEntity
8
0
100
AcDbLine
10
9.031935830140716
20
-4.7508992132379859
30
0
11
9.031935830140716
21
-5.2500000782310963
31
0
0
LINE
5
134
100
AcDbEntity
8
0
100
AcDbLine
10
9.031935830140716
20
-4.7508992132379859
30
0
11
9.031935830140716
21
-5.2500000782310963
31
0
0
LINE
5
135
100
AcDbEntity
8
0
100
AcDbLine
10
8.5319358301407178
20
-5.2500000782310963
30
0
11
8.5319358301407178
21
-4.7508992132379859
31
0
0
LINE
5
136
100
AcDbEntity
8
0
100
AcDbLine
10
8.5319358301407178
20
-4.7508992132379859
30
0
11
9.031935830140716
21
-4.7508992132379859
31
0
0
LWPOLYLINE
5
137
100
AcDbEntity
8
0
100
AcDbPolyline
90
4
70
1
43
0.0
10
8.7146877883756115
20
-3.9906937979101915
10
9.1146839062954612
20
-3.9889315127326697
10
9.114683906295463
20
-3.8589315127326707
10
8.714687788375624
20
-3.8589315127326707
0
LINE
5
138
100
AcDbEntity
8
0
100
AcDbLine
10
0.96806416985928578
20
-4.7508992132379859
30
0
11
0.96806416985928578
21
-5.2500000782310963
31
0
0
LINE
5
139
100
AcDbEntity
8
0
100
AcDbLine
10
0.96806416985928578
20
-5.2500000782310963
30
0
11
1.4680641698592849
21
-5.2500000782310963
31
0
0
LINE
5
140
100
AcDbEntity
8
0
100
AcDbLine
10
1.4680641698592849
20
-5.2500000782310963
30
0
11
1.4680641698592849
21
-4.7508992132379859
31
0
0
LINE
5
141
100
AcDbEntity
8
0
100
AcDbLine
10
1.4680641698592849
20
-4.7508992132379859
30
0
11
0.96806416985928578
21
-4.7508992132379859
31
0
0
LINE
5
142
100
AcDbEntity
8
0
100
AcDbLine
10
1.2853122116243405
20
-3.8584816125875365
30
0
11
1.2853122116243543
21
-3.9902438977650569
31
0
0
LINE
5
143
100
AcDbEntity
8
0
100
AcDbLine
10
1.2853122116243405
20
-3.8584816125875365
30
0
11
1.2853122116243543
21
-3.9902438977650569
31
0
0
LINE
5
144
100
AcDbEntity
8
0
100
AcDbLine
10
0.88531609370450104
20
-3.9884816125875355
30
0
11
0.88531609370450104
21
-3.8584816125875361
31
0
0
LINE
5
145
100
AcDbEntity
8
0
100
AcDbLine
10
0.88531609370450104
20
-3.8584816125875361
30
0
11
1.2853122116243405
21
-3.8584816125875365
31
0
0
CIRCLE
5
146
100
AcDbEntity
8
0
100
AcDbCircle
10
-2.3802432389852939
20
-4.6009999195337308
30
0
40
0.17499999999999946
0
CIRCLE
5
147
100
AcDbEntity
8
0
100
AcDbCircle
10
-2.3802432389852939
20
-5.4000000804662704
30
0
40
0.17499999999999974
0
CIRCLE
5
148
100
AcDbEntity
8
0
100
AcDbCircle
10
12.380243238985322
20
-4.6009999195337308
30
0
40
0.17499999999999946
0
CIRCLE
5
149
100
AcDbEntity
8
0
100
AcDbCircle
10
12.380243238985322
20
-5.4000000804662704
30
0
40
0.17500000000000013
0
ENDSEC
0
SECTION
2
OBJECTS
0
DICTIONARY
5
C
100
AcDbDictionary
3
ACAD_GROUP
350
D
3
ACAD_MLINESTYLE
350
17
0
DICTIONARY
5
D
100
AcDbDictionary
0
DICTIONARY
5
1A
330
C
100
AcDbDictionary
0
DICTIONARY
5
17
100
AcDbDictionary
0
ENDSEC
0
EOF
