0
SECTION
2
HEADER
9
$INSUNITS
70
5
9
$ACADVER
1
AC1014
9
$HANDSEED
5
FFFF
0
ENDSEC
0
SECTION
2
TABLES
0
TABLE
2
VPORT
5
8
100
AcDbSymbolTable
0
ENDTAB
0
TABLE
2
LTYPE
5
5
100
AcDbSymbolTable
0
LTYPE
5
14
100
AcDbSymbolTableRecord
100
AcDbLinetypeTableRecord
2
BYBLOCK
70
0
0
LTYPE
5
15
100
AcDbSymbolTableRecord
100
AcDbLinetypeTableRecord
2
BYLAYER
70
0
0
ENDTAB
0
TABLE
2
LAYER
5
2
100
AcDbSymbolTable
70
2
0
LAYER
5
50
100
AcDbSymbolTableRecord
100
AcDbLayerTableRecord
2
0
70
0
6
CONTINUOUS
0
ENDTAB
0
TABLE
2
STYLE
5
3
100
AcDbSymbolTable
70
1
0
STYLE
5
11
100
AcDbSymbolTableRecord
100
AcDbTextStyleTableRecord
2
STANDARD
70
0
0
ENDTAB
0
TABLE
2
VIEW
5
6
100
AcDbSymbolTable
70
0
0
ENDTAB
0
TABLE
2
UCS
5
7
100
AcDbSymbolTable
70
0
0
ENDTAB
0
TABLE
2
APPID
5
9
100
AcDbSymbolTable
70
2
0
APPID
5
12
100
AcDbSymbolTableRecord
100
AcDbRegAppTableRecord
2
ACAD
70
0
0
ENDTAB
0
TABLE
2
DIMSTYLE
5
A
100
AcDbSymbolTable
70
1
0
ENDTAB
0
TABLE
2
BLOCK_RECORD
5
1
100
AcDbSymbolTable
70
1
0
BLOCK_RECORD
5
1F
100
AcDbSymbolTableRecord
100
AcDbBlockTableRecord
2
*MODEL_SPACE
0
BLOCK_RECORD
5
1B
100
AcDbSymbolTableRecord
100
AcDbBlockTableRecord
2
*PAPER_SPACE
0
ENDTAB
0
ENDSEC
0
SECTION
2
BLOCKS
0
BLOCK
5
20
100
AcDbEntity
100
AcDbBlockBegin
2
*MODEL_SPACE
0
ENDBLK
5
21
100
AcDbEntity
100
AcDbBlockEnd
0
BLOCK
5
1C
100
AcDbEntity
100
AcDbBlockBegin
2
*PAPER_SPACE
0
ENDBLK
5
1D
100
AcDbEntity
100
AcDbBlockEnd
0
ENDSEC
0
SECTION
2
ENTITIES
0
LINE
5
100
100
AcDbEntity
8
0
100
AcDbLine
10
-1.810031333862784
20
-11.377487194363551
30
0
11
-1.810031333862784
21
-10.683225719611642
31
0
0
LINE
5
101
100
AcDbEntity
8
0
100
AcDbLine
10
-1.810031333862784
20
-10.683225719611642
30
0
11
-1.7306563338627838
21
-10.683225719611642
31
0
0
LINE
5
102
100
AcDbEntity
8
0
100
AcDbLine
10
-1.7306563338627838
20
-10.683225719611642
30
0
11
-1.7306563338627838
21
-10.722913219611639
31
0
0
LINE
5
103
100
AcDbEntity
8
0
100
AcDbLine
10
-1.1194063338627838
20
-10.722913219611639
30
0
11
-1.1194063338627838
21
-10.683225719611642
31
0
0
LINE
5
104
100
AcDbEntity
8
0
100
AcDbLine
10
-1.1194063338627838
20
-10.683225719611642
30
0
11
-1.0400313338627836
21
-10.683225719611642
31
0
0
LINE
5
105
100
AcDbEntity
8
0
100
AcDbLine
10
-1.0400313338627836
20
-10.683225719611642
30
0
11
-1.0400313338627845
21
-11.377487194363551
31
0
0
LINE
5
106
100
AcDbEntity
8
0
100
AcDbLine
10
-1.0400313338627845
20
-11.377487194363551
30
0
11
-0.099999999999999645
21
-11.377487194363548
31
0
0
LINE
5
107
100
AcDbEntity
8
0
100
AcDbLine
10
-0.099999999999999645
20
-11.377487194363548
30
0
11
-2.6041942173176009
21
-5.9409826642854169
31
0
0
LINE
5
108
100
AcDbEntity
8
0
100
AcDbLine
10
-7.3958057826823982
20
-5.9409826642854169
30
0
11
-9.9000000000000004
21
-11.377487194363548
31
0
0
LINE
5
109
100
AcDbEntity
8
0
100
AcDbLine
10
-9.9000000000000004
20
-11.377487194363548
30
0
11
-8.9599686661372182
21
-11.37748719436355
31
0
0
LINE
5
110
100
AcDbEntity
8
0
100
AcDbLine
10
-8.9599686661372182
20
-11.37748719436355
30
0
11
-8.9599686661372182
21
-10.68322571961164
31
0
0
LINE
5
111
100
AcDbEntity
8
0
100
AcDbLine
10
-8.9599686661372182
20
-10.68322571961164
30
0
11
-8.8805936661372176
21
-10.68322571961164
31
0
0
LINE
5
112
100
AcDbEntity
8
0
100
AcDbLine
10
-8.8805936661372176
20
-10.68322571961164
30
0
11
-8.8805936661372176
21
-10.722913219611639
31
0
0
LINE
5
113
100
AcDbEntity
8
0
100
AcDbLine
10
-8.2693436661372193
20
-10.722913219611639
30
0
11
-8.2693436661372193
21
-10.68322571961164
31
0
0
LINE
5
114
100
AcDbEntity
8
0
100
AcDbLine
10
-8.2693436661372193
20
-10.68322571961164
30
0
11
-8.1899686661372186
21
-10.68322571961164
31
0
0
LINE
5
115
100
AcDbEntity
8
0
100
AcDbLine
10
-8.1899686661372186
20
-10.68322571961164
30
0
11
-8.1899686661372186
21
-11.37748719436355
31
0
0
LINE
5
116
100
AcDbEntity
8
0
100
AcDbLine
10
-8.1899686661372186
20
-11.37748719436355
30
0
11
-1.810031333862784
21
-11.377487194363551
31
0
0
LINE
5
117
100
AcDbEntity
8
0
100
AcDbLine
10
-8.8805936661372176
20
-10.722913219611639
30
0
11
-8.8805936661372176
21
-11.598115810701376
31
0
0
LINE
5
118
100
AcDbEntity
8
0
100
AcDbLine
10
-8.8805936661372176
20
-11.598115810701376
30
0
11
-8.2693436661372193
21
-11.598115810701376
31
0
0
LINE
5
119
100
AcDbEntity
8
0
100
AcDbLine
10
-8.2693436661372193
20
-11.598115810701376
30
0
11
-8.2693436661372193
21
-10.722913219611639
31
0
0
LINE
5
120
100
AcDbEntity
8
0
100
AcDbLine
10
-1.7306563338627838
20
-10.722913219611639
30
0
11
-1.7306563338627838
21
-11.598115810701367
31
0
0
LINE
5
121
100
AcDbEntity
8
0
100
AcDbLine
10
-1.7306563338627838
20
-11.598115810701367
30
0
11
-1.1194063338627838
21
-11.598115810701367
31
0
0
LINE
5
122
100
AcDbEntity
8
0
100
AcDbLine
10
-1.1194063338627838
20
-11.598115810701367
30
0
11
-1.1194063338627838
21
-10.722913219611639
31
0
0
LINE
5
123
100
AcDbEntity
8
0
100
AcDbLine
10
-7.4820000000000002
20
-5.9174999999999995
30
0
11
-2.5179999999999998
21
-5.9174999999999995
31
0
0
LINE
5
124
100
AcDbEntity
8
0
100
AcDbLine
10
-7.3958057826823982
20
-5.9409826642854169
30
0
11
-7.3958057826823973
21
-5.8540045300781296
31
0
0
LINE
5
125
100
AcDbEntity
8
0
100
AcDbLine
10
-7.3958057826823973
20
-5.8540045300781296
30
0
11
-7.5095157287790855
21
-5.8540045300781296
31
0
0
LINE
5
126
100
AcDbEntity
8
0
100
AcDbLine
10
-7.5095157287790855
20
-5.8540045300781296
30
0
11
-7.5095157287790828
21
-5.8175000000000008
31
0
0
LINE
5
127
100
AcDbEntity
8
0
100
AcDbLine
10
-7.5095157287790837
20
-5.8175000000000008
30
0
11
-11.973321511461485
21
-9.7000001445412636
31
0
0
LINE
5
128
100
AcDbEntity
8
0
100
AcDbLine
10
-7.5095157287790828
20
-5.8175000000000008
30
0
11
-11.973321511461485
21
-9.7000001445412636
31
0
0
LINE
5
129
100
AcDbEntity
8
0
100
AcDbLine
10
-11.973321511461485
20
-9.7000001445412636
30
0
11
-11.973321511461485
21
-0.30000000447034886
31
0
0
LINE
5
130
100
AcDbEntity
8
0
100
AcDbLine
10
-11.973321511461485
20
-0.30000000447034886
30
0
11
-7.5095157287790828
21
-4.1825000000000001
31
0
0
LINE
5
131
100
AcDbEntity
8
0
100
AcDbLine
10
-7.5095157287790828
20
-4.1825000000000001
30
0
11
-7.5095157287790837
21
-4.0825000000000005
31
0
0
LINE
5
132
100
AcDbEntity
8
0
100
AcDbLine
10
-7.5095157287790837
20
-4.0825000000000005
30
0
11
-5.7000000000000002
21
-4.0824999999999996
31
0
0
LINE
5
133
100
AcDbEntity
8
0
100
AcDbLine
10
-5.7000000000000002
20
-4.0824999999999996
30
0
11
-5.7000000000000002
21
4.2365840403053125
31
0
0
LINE
5
134
100
AcDbEntity
8
0
100
AcDbLine
10
-5.7000000000000002
20
4.2365840403053125
30
0
11
-4.2999999999999998
21
4.2365840403053125
31
0
0
LINE
5
135
100
AcDbEntity
8
0
100
AcDbLine
10
-4.2999999999999998
20
4.2365840403053125
30
0
11
-4.2999999999999998
21
-4.0824999999999996
31
0
0
LINE
5
136
100
AcDbEntity
8
0
100
AcDbLine
10
-4.2999999999999998
20
-4.0824999999999996
30
0
11
-2.4904842712209341
21
-4.0825000000000005
31
0
0
LINE
5
137
100
AcDbEntity
8
0
100
AcDbLine
10
-2.4904842712209341
20
-4.0825000000000005
30
0
11
-2.4904842712209332
21
-4.1825000000000001
31
0
0
LINE
5
138
100
AcDbEntity
8
0
100
AcDbLine
10
-2.4904842712209332
20
-4.1825000000000001
30
0
11
1.9733215114614628
21
-0.30000000447034886
31
0
0
LINE
5
139
100
AcDbEntity
8
0
100
AcDbLine
10
1.9733215114614628
20
-0.30000000447034886
30
0
11
1.9733215114614628
21
-9.7000001445412636
31
0
0
LINE
5
140
100
AcDbEntity
8
0
100
AcDbLine
10
1.9733215114614628
20
-9.7000001445412636
30
0
11
-2.4904842712209332
21
-5.8175000000000008
31
0
0
LINE
5
141
100
AcDbEntity
8
0
100
AcDbLine
10
1.9733215114614628
20
-9.7000001445412636
30
0
11
-2.4904842712209332
21
-5.8175000000000008
31
0
0
LINE
5
142
100
AcDbEntity
8
0
100
AcDbLine
10
-2.4904842712209359
20
-5.8540045300781296
30
0
11
-2.6041942173176009
21
-5.8540045300781296
31
0
0
LINE
5
143
100
AcDbEntity
8
0
100
AcDbLine
10
-2.4904842712209332
20
-5.8175000000000008
30
0
11
-2.490484271220935
21
-5.8540045300781296
31
0
0
LINE
5
144
100
AcDbEntity
8
0
100
AcDbLine
10
-2.6041942173176009
20
-5.8540045300781296
30
0
11
-2.6041942173176009
21
-5.9409826642854169
31
0
0
CIRCLE
5
145
100
AcDbEntity
8
0
100
AcDbCircle
10
-3.299999900162236
20
-5.4000000804662713
30
0
40
0.17499999999999952
0
CIRCLE
5
146
100
AcDbEntity
8
0
100
AcDbCircle
10
-3.299999900162236
20
-4.6009999195337317
30
0
40
0.17500000000000018
0
CIRCLE
5
147
100
AcDbEntity
8
0
100
AcDbCircle
10
-6.70000009983778
20
-4.6009999195337317
30
0
40
0.17500000000000013
0
CIRCLE
5
148
100
AcDbEntity
8
0
100
AcDbCircle
10
-6.70000009983778
20
-5.4000000804662713
30
0
40
0.17499999999999977
0
CIRCLE
5
149
100
AcDbEntity
8
0
100
AcDbCircle
10
-8.5749686661372184
20
-11.160514515156507
30
0
40
0.099999999999999645
0
CIRCLE
5
150
100
AcDbEntity
8
0
100
AcDbCircle
10
-1.4250313338627838
20
-11.160514515156503
30
0
40
0.099999999999999645
0
CIRCLE
5
151
100
AcDbEntity
8
0
100
AcDbCircle
10
-5
20
3.8300548504653138
30
0
40
0.10000000000000009
0
LWPOLYLINE
5
152
100
AcDbEntity
8
0
100
AcDbPolyline
90
6
70
1
43
0.0
10
-11.129081081882134
20
-6.9000001028180122
10
-11.129081081882134
20
-3.1383435195059848
10
-9.2056193743726702
20
-3.1369026417937698
10
-8.3749998128041625
20
-3.6999999172985554
10
-8.3749998128041625
20
-6.2999998591840267
10
-9.2899997923523188
20
-6.9000001028180122
0
LINE
5
153
100
AcDbEntity
8
0
100
AcDbLine
10
-6.70000009983778
20
-5.4000000804662713
30
0
11
-3.299999900162236
21
-5.4000000804662713
31
0
0
LINE
5
154
100
AcDbEntity
8
0
100
AcDbLine
10
-5.000000000000008
20
-5.4000000804662713
30
0
11
-5.000000000000008
21
-4.4000000655651093
31
0
0
LWPOLYLINE
5
155
100
AcDbEntity
8
0
100
AcDbPolyline
90
6
70
1
43
0.0
10
-0.79438062562734579
20
-3.1369026417937698
10
-1.6250001871958535
20
-3.6999999172985554
10
-1.6250001871958535
20
-6.2999998591840267
10
-0.71000020764769722
20
-6.9000001028180122
10
1.1290810818821182
20
-6.9000001028180122
10
1.1290810818821182
20
-3.1383435195059848
0
ENDSEC
0
SECTION
2
OBJECTS
0
DICTIONARY
5
C
100
AcDbDictionary
3
ACAD_GROUP
350
D
3
ACAD_MLINESTYLE
350
17
0
DICTIONARY
5
D
100
AcDbDictionary
0
DICTIONARY
5
1A
330
C
100
AcDbDictionary
0
DICTIONARY
5
17
100
AcDbDictionary
0
ENDSEC
0
EOF
